<svg xmlns="http://www.w3.org/2000/svg" xmlns:xlink="http://www.w3.org/1999/xlink" width="1080" zoomAndPan="magnify" viewBox="0 0 810 809.999993" height="1080" preserveAspectRatio="xMidYMid meet" version="1.0"><defs><g/><clipPath id="ef1aaf8036"><path d="M 0 373.179688 L 810 373.179688 L 810 436.929688 L 0 436.929688 Z M 0 373.179688 " clip-rule="nonzero"/></clipPath></defs><g fill="#ffffff" fill-opacity="1"><g transform="translate(67.791522, 582.733345)"><g><path d="M 161.96875 4.921875 C 146.070312 4.921875 130.875 2.914062 116.375 -1.09375 C 101.875 -5.113281 88.804688 -11.015625 77.171875 -18.796875 C 65.535156 -26.578125 55.828125 -36.160156 48.046875 -47.546875 C 40.265625 -58.941406 35.0625 -72.09375 32.4375 -87 L 54.0625 -87 C 57.675781 -70.945312 64.765625 -57.507812 75.328125 -46.6875 C 85.898438 -35.875 98.722656 -27.765625 113.796875 -22.359375 C 128.867188 -16.953125 144.925781 -14.25 161.96875 -14.25 C 182.28125 -14.25 200.132812 -17.320312 215.53125 -23.46875 C 230.9375 -29.613281 243.019531 -38.09375 251.78125 -48.90625 C 260.550781 -59.71875 264.9375 -72.085938 264.9375 -86.015625 C 264.9375 -98.628906 262.722656 -109.851562 258.296875 -119.6875 C 253.878906 -129.519531 247.039062 -137.875 237.78125 -144.75 C 228.53125 -151.632812 216.445312 -156.960938 201.53125 -160.734375 L 123.875 -180.390625 C 98.144531 -186.953125 78.316406 -196.828125 64.390625 -210.015625 C 50.460938 -223.203125 43.5 -240.363281 43.5 -261.5 C 43.5 -280.175781 48.332031 -296.925781 58 -311.75 C 67.664062 -326.582031 81.222656 -338.300781 98.671875 -346.90625 C 116.128906 -355.507812 136.570312 -359.8125 160 -359.8125 C 186.375 -359.8125 208.367188 -354.9375 225.984375 -345.1875 C 243.597656 -335.4375 256.867188 -323.023438 265.796875 -307.953125 C 274.734375 -292.878906 279.117188 -277.394531 278.953125 -261.5 L 257.328125 -261.5 C 255.523438 -281.164062 249.75 -296.691406 240 -308.078125 C 230.25 -319.460938 218.285156 -327.570312 204.109375 -332.40625 C 189.941406 -337.238281 174.992188 -339.65625 159.265625 -339.65625 C 148.773438 -339.65625 137.957031 -338.140625 126.8125 -335.109375 C 115.675781 -332.078125 105.351562 -327.40625 95.84375 -321.09375 C 86.34375 -314.789062 78.644531 -306.765625 72.75 -297.015625 C 66.851562 -287.265625 63.90625 -275.59375 63.90625 -262 C 63.90625 -246.757812 69.226562 -234.304688 79.875 -224.640625 C 90.53125 -214.972656 109.457031 -206.535156 136.65625 -199.328125 L 211.125 -179.65625 C 224.882812 -176.050781 236.515625 -171.09375 246.015625 -164.78125 C 255.523438 -158.476562 263.1875 -151.226562 269 -143.03125 C 274.8125 -134.84375 279.03125 -125.992188 281.65625 -116.484375 C 284.28125 -106.984375 285.59375 -97.15625 285.59375 -87 C 285.59375 -70.289062 281.003906 -54.972656 271.828125 -41.046875 C 262.648438 -27.117188 248.925781 -15.972656 230.65625 -7.609375 C 212.382812 0.742188 189.488281 4.921875 161.96875 4.921875 Z M 161.96875 4.921875 "/></g></g></g><g fill="#ffffff" fill-opacity="1"><g transform="translate(367.631756, 582.733345)"><g><path d="M 301.3125 -174.984375 L 73.234375 -174.984375 L 73.234375 0 L 54.0625 0 L 54.0625 -355.390625 L 73.234375 -355.390625 L 73.234375 -195.140625 L 301.3125 -195.140625 L 301.3125 -355.390625 L 320.484375 -355.390625 L 320.484375 0 L 301.3125 0 Z M 301.3125 -174.984375 "/></g></g></g><g clip-path="url(#ef1aaf8036)"><path fill="#aeacab" d="M 0.0585938 373.179688 L 809.941406 373.179688 L 809.941406 436.929688 L 0.0585938 436.929688 L 0.0585938 373.179688 " fill-opacity="1" fill-rule="nonzero"/></g><g fill="#ffffff" fill-opacity="1"><g transform="translate(328.132842, 414.223271)"><g><path d="M 11.59375 -2.246094 C 11.683594 -1.648438 11.636719 -1.144531 11.363281 -0.734375 C 11.085938 -0.320312 10.628906 -0.046875 9.941406 0.0898438 C 9.394531 0.230469 8.796875 0.183594 8.246094 0 C 7.652344 -0.183594 7.054688 -0.414062 6.507812 -0.6875 C 5.910156 -0.960938 5.316406 -1.144531 4.765625 -1.328125 C 4.167969 -1.464844 3.621094 -1.421875 3.117188 -1.191406 C 2.65625 -1.007812 2.335938 -0.6875 2.109375 -0.230469 C 1.878906 0.230469 1.742188 0.6875 1.695312 1.191406 C 1.648438 1.742188 1.695312 2.246094 1.832031 2.75 C 1.96875 3.253906 2.199219 3.664062 2.566406 3.941406 C 3.390625 4.765625 4.351562 5.359375 5.453125 5.636719 C 6.550781 5.910156 7.699219 6.003906 8.886719 5.820312 C 10.078125 5.679688 11.269531 5.359375 12.460938 4.855469 C 13.652344 4.351562 14.753906 3.710938 15.761719 2.933594 C 16.769531 2.199219 17.640625 1.328125 18.371094 0.367188 C 19.105469 -0.59375 19.609375 -1.605469 19.886719 -2.613281 C 20.160156 -3.621094 20.207031 -4.671875 19.929688 -5.726562 C 19.65625 -6.734375 19.058594 -7.742188 18.097656 -8.660156 C 17.179688 -9.484375 16.128906 -10.402344 14.9375 -11.363281 C 13.746094 -12.324219 12.644531 -13.378906 11.683594 -14.476562 C 10.722656 -15.578125 9.988281 -16.816406 9.53125 -18.097656 C 9.027344 -19.378906 9.027344 -20.753906 9.484375 -22.3125 C 9.667969 -22.953125 9.988281 -23.597656 10.445312 -24.328125 C 10.90625 -25.0625 11.410156 -25.703125 12.003906 -26.34375 C 12.554688 -26.988281 13.195312 -27.535156 13.929688 -27.996094 C 14.617188 -28.453125 15.304688 -28.726562 16.035156 -28.910156 C 16.082031 -28.910156 16.171875 -28.910156 16.3125 -29.003906 C 16.632812 -29.230469 17 -29.460938 17.363281 -29.644531 C 17.730469 -29.828125 18.144531 -29.917969 18.601562 -29.917969 C 18.648438 -29.917969 18.695312 -29.917969 18.785156 -29.964844 C 18.875 -29.964844 18.921875 -30.011719 19.015625 -30.054688 C 19.472656 -30.195312 19.976562 -30.332031 20.570312 -30.46875 C 21.121094 -30.558594 21.71875 -30.742188 22.265625 -30.925781 C 22.816406 -31.109375 23.367188 -31.386719 23.824219 -31.660156 C 24.285156 -31.933594 24.695312 -32.347656 24.96875 -32.804688 C 25.199219 -33.261719 25.292969 -33.765625 25.292969 -34.316406 C 25.292969 -34.867188 25.152344 -35.371094 24.96875 -35.921875 C 24.789062 -36.472656 24.511719 -36.929688 24.144531 -37.386719 C 23.777344 -37.84375 23.414062 -38.164062 23 -38.441406 C 22.726562 -38.578125 22.496094 -38.761719 22.3125 -38.945312 C 22.128906 -39.128906 21.855469 -39.175781 21.535156 -39.175781 C 21.441406 -39.175781 21.351562 -39.21875 21.257812 -39.355469 C 20.984375 -39.539062 20.527344 -39.679688 19.976562 -39.679688 C 19.378906 -39.679688 18.785156 -39.585938 18.144531 -39.496094 C 17.503906 -39.355469 16.859375 -39.21875 16.3125 -39.082031 C 15.714844 -38.898438 15.257812 -38.808594 14.980469 -38.714844 C 13.5625 -38.257812 12.234375 -37.800781 10.996094 -37.25 C 9.757812 -36.699219 8.523438 -36.011719 7.285156 -35.28125 L 6.460938 -34.730469 C 5.542969 -33.996094 4.582031 -32.988281 3.664062 -31.707031 C 2.75 -30.421875 1.96875 -29.046875 1.328125 -27.582031 C 0.6875 -26.117188 0.230469 -24.605469 0.046875 -23.09375 C -0.136719 -21.578125 0.046875 -20.207031 0.59375 -19.015625 C 1.28125 -17.457031 2.109375 -15.945312 3.117188 -14.523438 C 4.078125 -13.058594 5.085938 -11.730469 6.183594 -10.445312 C 6.644531 -9.851562 7.191406 -9.253906 7.789062 -8.613281 C 8.339844 -7.972656 8.886719 -7.332031 9.4375 -6.644531 C 9.941406 -5.957031 10.402344 -5.222656 10.8125 -4.488281 C 11.179688 -3.757812 11.453125 -2.976562 11.59375 -2.246094 Z M 11.59375 -2.246094 "/></g></g></g><g fill="#ffffff" fill-opacity="1"><g transform="translate(356.26122, 414.223271)"><g><path d="M 6.367188 9.714844 C 6.917969 10.078125 7.558594 10.355469 8.246094 10.492188 C 8.886719 10.675781 9.667969 10.675781 10.539062 10.492188 C 10.90625 10.492188 11.226562 10.402344 11.546875 10.21875 C 11.867188 10.078125 12.140625 9.898438 12.417969 9.621094 C 12.964844 9.070312 13.332031 8.339844 13.425781 7.46875 C 13.425781 7.375 13.378906 7.191406 13.332031 6.964844 C 13.242188 6.78125 13.195312 6.550781 13.148438 6.367188 C 13.105469 6.183594 13.105469 5.957031 13.105469 5.773438 C 13.105469 5.589844 13.148438 5.40625 13.332031 5.316406 C 13.515625 5.222656 13.699219 5.132812 13.835938 4.949219 C 13.929688 4.765625 14.066406 4.582031 14.25 4.398438 C 14.753906 3.621094 15.257812 2.839844 15.714844 2.015625 C 16.171875 1.191406 16.632812 0.414062 17.179688 -0.414062 C 17.59375 -0.960938 17.960938 -1.558594 18.328125 -2.152344 C 18.648438 -2.75 19.015625 -3.34375 19.472656 -3.941406 C 19.519531 -4.078125 19.5625 -4.214844 19.65625 -4.308594 C 19.703125 -4.398438 19.839844 -4.488281 20.023438 -4.488281 C 20.207031 -4.488281 20.480469 -4.125 20.800781 -3.480469 C 21.074219 -2.792969 21.398438 -2.015625 21.71875 -1.191406 C 21.992188 -0.367188 22.265625 0.457031 22.542969 1.191406 C 22.769531 1.96875 22.953125 2.429688 23.09375 2.613281 C 23.503906 3.4375 24.101562 4.125 24.878906 4.671875 C 25.613281 5.222656 26.4375 5.589844 27.261719 5.726562 C 28.085938 5.910156 28.863281 5.820312 29.644531 5.5 C 30.421875 5.175781 31.0625 4.535156 31.566406 3.574219 C 31.84375 3.023438 32.117188 2.382812 32.300781 1.695312 C 32.484375 1.054688 32.714844 0.367188 32.898438 -0.273438 C 33.539062 -2.199219 34.226562 -4.078125 35.050781 -6.003906 C 35.875 -7.925781 36.652344 -9.851562 37.480469 -11.773438 C 37.707031 -12.324219 37.9375 -12.875 38.164062 -13.46875 C 38.347656 -14.066406 38.578125 -14.660156 38.851562 -15.257812 C 39.082031 -15.808594 39.355469 -16.402344 39.679688 -16.953125 C 39.953125 -17.503906 40.320312 -17.960938 40.777344 -18.417969 C 40.960938 -18.601562 41.144531 -18.875 41.234375 -19.152344 C 41.328125 -19.425781 41.375 -19.703125 41.328125 -19.976562 C 41.144531 -20.480469 40.824219 -20.847656 40.273438 -21.074219 C 39.722656 -21.257812 39.21875 -21.257812 38.761719 -21.074219 C 38.441406 -20.894531 38.164062 -20.710938 37.9375 -20.527344 C 37.660156 -20.34375 37.523438 -20.066406 37.480469 -19.703125 C 37.296875 -18.328125 36.976562 -17 36.515625 -15.714844 C 36.058594 -14.433594 35.554688 -13.195312 35.003906 -12.003906 C 34.410156 -10.8125 33.765625 -9.621094 33.125 -8.429688 C 32.484375 -7.238281 31.84375 -6.003906 31.292969 -4.8125 C 31.109375 -4.445312 30.972656 -4.03125 30.835938 -3.664062 C 30.652344 -3.300781 30.515625 -2.933594 30.378906 -2.566406 C 30.285156 -2.472656 30.238281 -2.382812 30.195312 -2.289062 C 30.101562 -2.199219 30.054688 -2.0625 29.964844 -1.925781 C 29.691406 -2.429688 29.507812 -2.886719 29.414062 -3.34375 C 29.324219 -3.804688 29.230469 -4.261719 29.230469 -4.765625 C 29.1875 -5.316406 29.09375 -5.957031 29.003906 -6.734375 C 28.910156 -7.46875 28.726562 -8.246094 28.5 -9.027344 C 28.269531 -9.804688 27.996094 -10.539062 27.628906 -11.269531 C 27.261719 -12.003906 26.847656 -12.601562 26.390625 -13.105469 C 25.886719 -13.5625 25.335938 -13.882812 24.695312 -14.066406 C 24.054688 -14.203125 23.320312 -14.113281 22.496094 -13.792969 C 22.085938 -13.609375 21.71875 -13.332031 21.441406 -13.058594 C 21.121094 -12.78125 20.847656 -12.460938 20.570312 -12.097656 C 20.296875 -11.730469 20.066406 -11.316406 19.839844 -10.949219 C 19.609375 -10.539062 19.378906 -10.171875 19.199219 -9.851562 C 18.371094 -8.566406 17.503906 -7.375 16.585938 -6.277344 C 15.667969 -5.175781 14.800781 -3.984375 14.019531 -2.75 C 13.792969 -2.429688 13.609375 -2.109375 13.425781 -1.832031 C 13.242188 -1.558594 13.058594 -1.238281 12.875 -0.917969 C 12.828125 -0.824219 12.691406 -0.734375 12.460938 -0.59375 C 12.324219 -0.917969 12.234375 -1.191406 12.234375 -1.464844 C 11.773438 -4.125 11.546875 -6.828125 11.453125 -9.484375 C 11.363281 -12.140625 11.316406 -14.84375 11.226562 -17.546875 C 11.132812 -19.105469 10.996094 -20.664062 10.722656 -22.128906 C 10.445312 -23.597656 10.035156 -25.109375 9.574219 -26.664062 C 9.4375 -27.03125 9.347656 -27.445312 9.253906 -27.902344 C 9.164062 -28.359375 9.027344 -28.773438 8.933594 -29.230469 C 8.84375 -29.644531 8.707031 -30.054688 8.523438 -30.421875 C 8.339844 -30.789062 8.0625 -31.15625 7.789062 -31.523438 C 7.238281 -32.070312 6.597656 -32.4375 5.910156 -32.578125 C 5.222656 -32.714844 4.535156 -32.941406 3.894531 -33.21875 C 3.527344 -33.355469 3.160156 -33.539062 2.792969 -33.765625 C 2.429688 -33.996094 2.109375 -34.179688 1.785156 -34.316406 C 1.464844 -34.410156 1.144531 -34.453125 0.824219 -34.363281 C 0.503906 -34.273438 0.183594 -34.042969 -0.136719 -33.585938 C -0.640625 -32.941406 -0.871094 -32.300781 -0.824219 -31.613281 C -0.824219 -30.925781 -0.777344 -30.238281 -0.6875 -29.507812 C -0.414062 -26.894531 -0.136719 -24.285156 0.136719 -21.71875 C 0.414062 -19.152344 0.59375 -16.539062 0.777344 -13.972656 C 0.917969 -11.5 1.054688 -9.070312 1.144531 -6.597656 C 1.238281 -4.125 1.511719 -1.648438 2.0625 0.734375 C 2.246094 1.648438 2.472656 2.519531 2.65625 3.390625 C 2.839844 4.261719 3.160156 5.085938 3.527344 5.910156 C 3.847656 6.734375 4.261719 7.421875 4.71875 8.0625 C 5.175781 8.707031 5.726562 9.253906 6.367188 9.714844 Z M 6.367188 9.714844 "/></g></g></g><g fill="#ffffff" fill-opacity="1"><g transform="translate(399.872892, 414.223271)"><g><path d="M 7.515625 -15.898438 L 7.605469 -15.898438 C 7.421875 -17.179688 7.191406 -18.511719 6.917969 -19.886719 C 6.644531 -21.214844 6.324219 -22.496094 5.957031 -23.6875 C 5.726562 -24.328125 5.453125 -24.878906 5.085938 -25.429688 C 4.71875 -25.980469 4.398438 -26.527344 4.03125 -27.078125 C 3.664062 -27.535156 3.207031 -27.902344 2.566406 -28.085938 C 2.382812 -28.132812 2.152344 -28.179688 1.96875 -28.222656 C 1.785156 -28.222656 1.605469 -28.269531 1.421875 -28.359375 C 0.824219 -28.542969 0.457031 -28.40625 0.273438 -27.855469 C 0.183594 -27.671875 0.136719 -27.535156 0.136719 -27.398438 C 0.0898438 -27.261719 0.0898438 -27.125 0.0898438 -26.988281 C 0.0898438 -25.335938 0.0898438 -23.640625 0.0898438 -21.855469 C 0.046875 -20.023438 0 -18.234375 0 -16.402344 C 0 -14.570312 0 -12.738281 0.046875 -10.949219 C 0.046875 -9.117188 0.183594 -7.421875 0.367188 -5.820312 C 0.367188 -5.453125 0.367188 -5.132812 0.367188 -4.8125 C 0.367188 -4.488281 0.273438 -4.167969 0.136719 -3.894531 C 0.046875 -3.804688 0.046875 -3.664062 0.046875 -3.574219 C 0.046875 -3.4375 0.0898438 -3.34375 0.136719 -3.253906 C 0.136719 -3.023438 0.183594 -2.792969 0.273438 -2.613281 C 0.367188 -2.429688 0.414062 -2.199219 0.414062 -2.015625 C 0.414062 -1.28125 0.59375 -0.550781 1.054688 0.183594 C 1.511719 0.917969 2.0625 1.605469 2.703125 2.246094 C 3.34375 2.886719 4.078125 3.390625 4.855469 3.804688 C 5.589844 4.214844 6.324219 4.445312 6.964844 4.488281 C 7.605469 4.535156 8.109375 4.351562 8.523438 3.941406 C 8.933594 3.574219 9.164062 2.839844 9.164062 1.785156 C 9.164062 1.558594 9.164062 1.328125 9.164062 1.054688 C 9.164062 0.824219 9.070312 0.59375 8.84375 0.414062 C 8.796875 0.414062 8.796875 0.367188 8.796875 0.273438 C 8.707031 -0.046875 8.660156 -0.367188 8.613281 -0.6875 C 8.523438 -0.960938 8.476562 -1.28125 8.476562 -1.648438 C 8.339844 -2.65625 8.246094 -3.757812 8.15625 -4.992188 C 8.0625 -6.230469 7.972656 -7.46875 7.925781 -8.75 C 7.835938 -10.035156 7.789062 -11.269531 7.742188 -12.507812 C 7.652344 -13.699219 7.605469 -14.84375 7.515625 -15.898438 Z M 7.515625 -15.898438 "/></g></g></g><g fill="#ffffff" fill-opacity="1"><g transform="translate(415.953619, 414.223271)"><g><path d="M 12.277344 -15.304688 C 12.417969 -16.585938 12.554688 -17.824219 12.644531 -19.058594 C 12.738281 -20.296875 12.78125 -21.578125 12.828125 -22.863281 C 12.921875 -23.503906 12.644531 -24.054688 12.050781 -24.605469 C 11.957031 -24.648438 11.914062 -24.742188 11.867188 -24.925781 C 11.820312 -25.0625 11.820312 -25.199219 11.867188 -25.292969 C 11.867188 -25.382812 11.914062 -25.429688 12.050781 -25.472656 C 12.1875 -25.472656 12.324219 -25.519531 12.460938 -25.613281 C 13.242188 -25.75 14.066406 -25.796875 14.890625 -25.75 C 15.714844 -25.65625 16.539062 -25.613281 17.410156 -25.519531 C 18.234375 -25.429688 19.105469 -25.335938 19.929688 -25.335938 C 20.753906 -25.292969 21.535156 -25.382812 22.359375 -25.65625 C 22.726562 -25.75 23.046875 -25.839844 23.414062 -25.933594 C 23.777344 -26.023438 24.054688 -26.300781 24.328125 -26.710938 C 24.695312 -27.214844 24.695312 -27.628906 24.375 -27.996094 C 24.101562 -28.269531 23.824219 -28.542969 23.597656 -28.726562 C 23.367188 -28.910156 23.136719 -29.09375 22.910156 -29.1875 C 22.632812 -29.277344 22.40625 -29.367188 22.128906 -29.414062 C 21.855469 -29.460938 21.488281 -29.507812 21.121094 -29.597656 C 20.390625 -29.691406 19.703125 -29.691406 19.015625 -29.691406 C 18.28125 -29.691406 17.59375 -29.644531 16.90625 -29.597656 C 16.171875 -29.550781 15.484375 -29.507812 14.800781 -29.460938 C 14.066406 -29.367188 13.378906 -29.367188 12.691406 -29.414062 C 12.507812 -29.414062 12.234375 -29.367188 11.957031 -29.367188 C 11.683594 -29.324219 11.363281 -29.324219 11.085938 -29.324219 C 10.765625 -29.324219 10.492188 -29.324219 10.21875 -29.324219 C 9.941406 -29.324219 9.757812 -29.414062 9.574219 -29.507812 C 9.253906 -29.644531 9.027344 -29.78125 8.84375 -29.964844 C 8.660156 -30.101562 8.476562 -30.238281 8.292969 -30.378906 C 8.109375 -30.46875 7.878906 -30.558594 7.699219 -30.605469 C 7.515625 -30.652344 7.238281 -30.652344 6.871094 -30.652344 C 6.507812 -30.558594 6.183594 -30.421875 5.910156 -30.285156 C 5.636719 -30.101562 5.40625 -29.917969 5.222656 -29.734375 C 4.992188 -29.550781 4.765625 -29.324219 4.535156 -29.140625 C 4.308594 -28.957031 4.03125 -28.773438 3.757812 -28.683594 C 3.117188 -28.40625 2.429688 -28.359375 1.695312 -28.453125 C 0.917969 -28.542969 0.183594 -28.589844 -0.503906 -28.542969 C -1.421875 -28.453125 -2.335938 -28.40625 -3.253906 -28.316406 C -4.167969 -28.222656 -5.132812 -28.132812 -6.046875 -28.039062 C -6.367188 -27.949219 -6.6875 -27.902344 -7.011719 -27.902344 C -7.375 -27.902344 -7.699219 -27.855469 -8.019531 -27.8125 C -8.382812 -27.765625 -8.613281 -27.628906 -8.796875 -27.445312 C -8.980469 -27.261719 -9.164062 -27.078125 -9.394531 -26.941406 C -9.4375 -26.941406 -9.4375 -26.894531 -9.4375 -26.847656 C -9.4375 -26.757812 -9.484375 -26.710938 -9.484375 -26.664062 C -9.394531 -26.484375 -9.347656 -26.34375 -9.300781 -26.160156 C -9.300781 -25.980469 -9.210938 -25.839844 -9.070312 -25.703125 C -8.660156 -25.292969 -8.203125 -24.96875 -7.699219 -24.789062 C -7.238281 -24.558594 -6.6875 -24.464844 -6.09375 -24.558594 C -4.628906 -24.695312 -3.160156 -24.789062 -1.695312 -24.832031 C -0.230469 -24.832031 1.238281 -24.878906 2.65625 -24.96875 C 3.117188 -24.96875 3.34375 -24.742188 3.253906 -24.285156 C 3.160156 -23.824219 3.070312 -23.367188 2.976562 -22.910156 C 2.886719 -22.449219 2.75 -22.039062 2.65625 -21.625 C 2.382812 -20.34375 2.199219 -19.105469 2.199219 -17.867188 C 2.152344 -16.585938 2.0625 -15.347656 1.96875 -14.066406 C 1.785156 -12.828125 1.648438 -11.636719 1.511719 -10.492188 C 1.375 -9.300781 1.328125 -8.109375 1.421875 -6.917969 C 1.421875 -5.542969 1.421875 -4.167969 1.375 -2.839844 C 1.28125 -1.464844 1.375 -0.136719 1.648438 1.238281 C 1.648438 1.695312 1.785156 2.152344 2.0625 2.613281 C 2.472656 3.300781 2.886719 3.984375 3.34375 4.628906 C 3.804688 5.316406 4.308594 5.910156 4.949219 6.414062 C 5.589844 6.964844 6.277344 7.191406 7.011719 7.191406 C 7.699219 7.191406 8.429688 7.191406 9.253906 7.148438 C 10.078125 7.191406 10.859375 6.871094 11.5 6.183594 C 11.820312 5.863281 12.003906 5.5 12.050781 5.085938 C 12.050781 4.671875 12.097656 4.261719 12.140625 3.804688 C 12.140625 3.4375 12.050781 3.117188 11.914062 2.75 C 11.773438 2.382812 11.730469 2.0625 11.773438 1.695312 C 11.867188 0.871094 11.867188 0 11.820312 -0.824219 C 11.730469 -1.648438 11.683594 -2.472656 11.636719 -3.390625 C 11.546875 -4.167969 11.59375 -4.949219 11.683594 -5.773438 C 11.773438 -6.597656 11.773438 -7.375 11.773438 -8.203125 C 11.773438 -8.203125 11.773438 -8.246094 11.773438 -8.292969 C 11.773438 -8.292969 11.820312 -8.339844 11.820312 -8.429688 C 11.820312 -9.574219 11.914062 -10.722656 12.003906 -11.867188 C 12.097656 -12.964844 12.1875 -14.113281 12.277344 -15.304688 Z M 12.277344 -15.304688 "/></g></g></g><g fill="#ffffff" fill-opacity="1"><g transform="translate(436.890046, 414.223271)"><g><path d="M 21.992188 -23.640625 L 22.222656 -23.640625 C 22.726562 -23.640625 23.183594 -23.734375 23.640625 -23.917969 C 24.054688 -24.101562 24.375 -24.421875 24.648438 -24.96875 C 24.925781 -25.519531 25.015625 -26.070312 24.925781 -26.621094 C 24.832031 -27.167969 24.605469 -27.671875 24.328125 -28.132812 C 24.054688 -28.589844 23.640625 -28.957031 23.183594 -29.324219 C 22.726562 -29.691406 22.222656 -29.964844 21.71875 -30.195312 C 21.625 -30.238281 21.488281 -30.285156 21.304688 -30.378906 C 21.167969 -30.378906 21.03125 -30.421875 20.9375 -30.421875 C 20.800781 -30.421875 20.664062 -30.46875 20.527344 -30.515625 C 19.242188 -30.652344 18.007812 -30.605469 16.769531 -30.332031 C 15.484375 -30.054688 14.296875 -29.597656 13.148438 -29.046875 C 12.003906 -28.5 10.949219 -27.765625 9.941406 -26.941406 C 8.933594 -26.117188 8.019531 -25.199219 7.285156 -24.285156 C 6.046875 -22.726562 5.039062 -21.03125 4.308594 -19.242188 C 3.574219 -17.410156 2.933594 -15.578125 2.429688 -13.746094 C 2.0625 -12.460938 1.785156 -11.179688 1.648438 -9.898438 C 1.511719 -8.613281 1.558594 -7.332031 1.742188 -6.09375 C 1.925781 -4.855469 2.289062 -3.664062 2.839844 -2.566406 C 3.390625 -1.421875 4.214844 -0.367188 5.269531 0.550781 C 5.40625 0.734375 5.589844 0.871094 5.820312 0.960938 C 6.003906 1.054688 6.230469 1.191406 6.414062 1.28125 C 7.605469 2.015625 8.707031 2.519531 9.714844 2.703125 C 10.722656 2.933594 11.730469 2.933594 12.691406 2.703125 C 13.609375 2.472656 14.523438 2.0625 15.441406 1.421875 C 16.3125 0.777344 17.226562 0 18.191406 -1.007812 C 18.371094 -1.144531 18.464844 -1.328125 18.464844 -1.558594 C 18.464844 -1.785156 18.417969 -2.015625 18.28125 -2.246094 C 18.097656 -2.429688 18.007812 -2.65625 17.914062 -2.886719 C 17.824219 -3.117188 17.640625 -3.207031 17.410156 -3.160156 C 17.320312 -3.070312 17.179688 -3.070312 17.089844 -3.070312 C 17 -3.070312 16.90625 -3.023438 16.816406 -3.023438 C 15.898438 -2.933594 14.980469 -2.886719 14.066406 -2.839844 C 13.148438 -2.75 12.277344 -2.703125 11.410156 -2.65625 C 10.949219 -2.566406 10.628906 -2.613281 10.445312 -2.792969 C 10.261719 -2.933594 10.21875 -3.253906 10.261719 -3.710938 C 10.261719 -4.167969 10.21875 -4.628906 10.21875 -5.085938 C 10.21875 -5.542969 10.21875 -6.003906 10.261719 -6.460938 C 10.308594 -8.382812 10.628906 -10.355469 11.269531 -12.277344 C 11.914062 -14.203125 12.78125 -15.992188 13.882812 -17.640625 C 14.296875 -18.28125 14.800781 -18.921875 15.394531 -19.65625 C 15.945312 -20.34375 16.585938 -20.984375 17.273438 -21.578125 C 17.960938 -22.175781 18.695312 -22.679688 19.519531 -23.046875 C 20.296875 -23.414062 21.121094 -23.640625 21.992188 -23.640625 Z M 21.992188 -23.640625 "/></g></g></g><g fill="#ffffff" fill-opacity="1"><g transform="translate(461.81182, 414.223271)"><g><path d="M 13.5625 -13.792969 C 13.195312 -13.746094 12.828125 -13.699219 12.554688 -13.699219 L 11.636719 -13.609375 L 11.453125 -13.609375 C 10.90625 -13.609375 10.355469 -13.5625 9.804688 -13.5625 C 9.253906 -13.515625 8.75 -13.515625 8.203125 -13.515625 C 7.925781 -13.515625 7.742188 -13.652344 7.699219 -13.972656 C 7.652344 -14.476562 7.605469 -15.027344 7.605469 -15.578125 C 7.605469 -16.128906 7.652344 -16.632812 7.742188 -17.179688 C 7.925781 -18.371094 7.972656 -19.5625 7.878906 -20.800781 C 7.789062 -21.992188 7.605469 -23.183594 7.285156 -24.328125 C 7.011719 -25.199219 6.550781 -26.070312 5.957031 -26.894531 C 5.316406 -27.71875 4.671875 -28.359375 3.984375 -28.910156 C 3.34375 -29.414062 2.703125 -29.414062 2.109375 -28.863281 C 1.785156 -28.589844 1.695312 -28.269531 1.878906 -27.855469 C 1.96875 -27.628906 2.015625 -27.398438 2.015625 -27.214844 C 2.015625 -27.03125 2.015625 -26.847656 2.015625 -26.664062 C 1.96875 -26.390625 1.96875 -26.160156 1.96875 -25.980469 L 1.96875 -25.335938 C 1.925781 -25.152344 1.925781 -25.015625 1.96875 -24.925781 C 2.015625 -24.789062 2.015625 -24.648438 2.015625 -24.511719 C 1.832031 -22.589844 1.648438 -20.664062 1.421875 -18.832031 C 1.191406 -17 0.960938 -15.121094 0.734375 -13.242188 C 0.457031 -11.410156 0.367188 -9.574219 0.367188 -7.699219 C 0.367188 -5.773438 0.320312 -3.984375 0.183594 -2.289062 C 0.136719 -2.015625 0.0898438 -1.695312 0 -1.375 C -0.0898438 -1.007812 -0.136719 -0.6875 -0.183594 -0.367188 C -0.230469 0 -0.230469 0.320312 -0.183594 0.640625 C -0.183594 1.007812 -0.0898438 1.28125 0.0898438 1.558594 C 0.183594 1.832031 0.414062 2.109375 0.777344 2.382812 C 1.101562 2.65625 1.464844 2.933594 1.878906 3.160156 C 2.289062 3.4375 2.703125 3.621094 3.117188 3.804688 C 3.527344 3.984375 3.894531 4.03125 4.167969 3.941406 C 4.351562 3.941406 4.582031 3.894531 4.765625 3.804688 C 4.949219 3.757812 5.175781 3.710938 5.40625 3.621094 C 5.726562 3.480469 5.957031 3.300781 6.140625 3.070312 C 6.324219 2.839844 6.414062 2.566406 6.460938 2.289062 C 6.507812 2.015625 6.507812 1.695312 6.507812 1.375 C 6.507812 1.101562 6.507812 0.777344 6.507812 0.457031 C 6.414062 -0.320312 6.460938 -1.101562 6.597656 -1.878906 C 6.6875 -2.65625 6.78125 -3.4375 6.871094 -4.214844 C 6.917969 -5.269531 7.011719 -6.324219 7.148438 -7.332031 C 7.238281 -8.339844 7.375 -9.394531 7.515625 -10.445312 C 7.515625 -10.722656 7.558594 -10.859375 7.605469 -10.949219 C 7.605469 -10.996094 7.742188 -10.996094 8.019531 -10.996094 C 8.109375 -10.949219 8.429688 -10.949219 8.980469 -10.949219 C 9.484375 -10.949219 10.035156 -10.996094 10.628906 -10.996094 C 11.226562 -10.996094 11.773438 -11.042969 12.234375 -11.042969 C 12.691406 -11.042969 12.964844 -10.996094 12.964844 -10.90625 C 12.964844 -10.8125 12.964844 -10.765625 12.964844 -10.722656 C 12.964844 -10.675781 12.964844 -10.628906 12.964844 -10.582031 C 12.875 -10.035156 12.828125 -9.484375 12.78125 -8.933594 C 12.738281 -8.382812 12.691406 -7.878906 12.644531 -7.332031 C 12.460938 -5.863281 12.277344 -4.445312 12.140625 -3.023438 L 11.683594 1.28125 C 11.59375 1.96875 11.453125 2.703125 11.316406 3.4375 C 11.132812 4.214844 11.042969 4.992188 10.949219 5.773438 C 10.859375 6.597656 10.859375 7.375 10.90625 8.109375 C 10.949219 8.84375 11.132812 9.53125 11.5 10.125 C 11.683594 10.492188 11.957031 10.90625 12.324219 11.363281 C 12.691406 11.820312 13.105469 12.277344 13.5625 12.644531 C 14.019531 13.058594 14.476562 13.378906 15.027344 13.5625 C 15.53125 13.746094 16.035156 13.746094 16.496094 13.46875 C 16.816406 13.285156 17.089844 13.105469 17.273438 12.921875 C 17.457031 12.738281 17.546875 12.507812 17.640625 12.234375 C 17.730469 11.957031 17.777344 11.683594 17.824219 11.410156 C 17.867188 11.132812 17.914062 10.765625 18.007812 10.402344 C 18.050781 10.308594 18.144531 10.21875 18.234375 10.125 C 18.328125 10.035156 18.371094 9.898438 18.417969 9.804688 C 18.417969 9.714844 18.371094 9.621094 18.328125 9.484375 C 18.234375 9.394531 18.191406 9.253906 18.144531 9.164062 C 18.050781 8.292969 18.007812 7.375 17.960938 6.414062 C 17.914062 5.453125 17.914062 4.535156 17.960938 3.664062 C 18.191406 -1.054688 18.554688 -5.726562 19.058594 -10.402344 C 19.519531 -15.027344 19.839844 -19.703125 20.023438 -24.464844 C 20.023438 -25.246094 20.023438 -26.023438 19.976562 -26.804688 C 19.929688 -27.582031 19.839844 -28.359375 19.65625 -29.140625 C 19.472656 -29.597656 19.199219 -30.011719 18.832031 -30.421875 C 18.464844 -30.835938 18.007812 -31.15625 17.546875 -31.339844 C 17.089844 -31.523438 16.632812 -31.523438 16.171875 -31.429688 C 15.714844 -31.292969 15.347656 -30.925781 15.074219 -30.378906 C 14.800781 -29.734375 14.753906 -29.09375 14.84375 -28.359375 C 14.9375 -27.628906 14.980469 -26.941406 14.980469 -26.34375 C 14.9375 -25.429688 14.84375 -24.558594 14.707031 -23.734375 C 14.523438 -22.863281 14.433594 -21.992188 14.433594 -21.121094 C 14.339844 -20.023438 14.25 -18.96875 14.066406 -17.914062 C 13.882812 -16.816406 13.746094 -15.761719 13.652344 -14.707031 C 13.609375 -14.523438 13.5625 -14.386719 13.5625 -14.25 C 13.5625 -14.066406 13.5625 -13.929688 13.5625 -13.792969 Z M 13.5625 -13.792969 "/></g></g></g></svg>